PathFileType	4	(X/Y/Z)	C:\Users\86182\Documents\cortex\Trimmed_M1_L11.trc
DataRate	CameraRate	NumFrames	NumMarkers	Units	OrigDataRate	OrigDataStartFrame	OrigNumFrames
100.00	100.00	       169	2	mm	100.00	361	       901
Frame#	Time	gripper			box			
		X1	Y1	Z1	X2	Y2	Z2	

361	3.600	199.66066	196.01944	292.95987	201.29105	194.91521	156.64398	
362	3.610	199.62572	196.02718	292.96405	201.29422	194.91476	156.64589	
363	3.620	199.70898	196.04649	292.93738	201.28465	194.91612	156.64020	
364	3.630	199.69086	196.05397	292.96188	201.30066	194.91386	156.64970	
365	3.640	199.67442	196.04434	292.98117	201.28757	194.92262	156.65457	
366	3.650	199.67802	196.06184	292.98544	201.30066	194.91386	156.64970	
367	3.660	199.67915	196.06490	292.99594	201.26599	194.93707	156.66258	
368	3.670	199.67995	196.04889	292.96677	201.30066	194.91386	156.64970	
369	3.680	199.68369	196.03432	292.96320	201.29742	194.91434	156.64783	
370	3.690	199.61482	196.00531	292.93622	201.25957	194.91966	156.62527	
371	3.700	199.52916	195.97766	292.90939	201.22856	194.89804	156.57713	
372	3.710	199.48541	195.94975	292.91425	201.18370	194.84615	156.40372	
373	3.720	199.45512	195.92513	292.90094	201.18370	194.84615	156.40372	
374	3.730	199.35930	195.85579	292.83942	201.18225	194.84952	156.39436	
375	3.740	199.30786	195.84808	292.82709	201.17680	194.86191	156.35970	
376	3.750	199.34100	195.89838	292.82758	201.18040	194.85365	156.38274	
377	3.760	199.37929	195.95341	292.84369	201.18370	194.84615	156.40372	
378	3.770	199.46677	195.98860	292.88916	201.18370	194.84615	156.40372	
379	3.780	199.45370	195.94820	292.91379	201.18370	194.84615	156.40372	
380	3.790	199.47026	195.93501	292.91876	201.18370	194.84615	156.40372	
381	3.800	199.48035	195.94481	292.91574	201.19705	194.83990	156.44147	
382	3.810	199.52695	195.90605	292.93378	201.20131	194.83612	156.45703	
383	3.820	199.50214	195.95010	292.90475	201.18608	194.84508	156.41037	
384	3.830	199.49422	195.93639	292.90540	201.18655	194.84206	156.41716	
385	3.840	199.51598	195.94109	292.88138	201.18370	194.84615	156.40372	
386	3.850	199.46271	195.94615	292.84772	201.18370	194.84615	156.40372	
387	3.860	199.42697	195.92563	292.84418	201.18370	194.84615	156.40372	
388	3.870	199.43532	195.91151	292.85843	201.18370	194.84615	156.40372	
389	3.880	199.44749	195.91730	292.86807	201.18370	194.84615	156.40372	
390	3.890	199.49899	195.94005	292.90079	201.18370	194.84615	156.40372	
391	3.900	199.46413	195.92836	292.91153	201.18370	194.84615	156.40372	
392	3.910	199.49290	195.95705	292.91202	201.18370	194.84615	156.40372	
393	3.920	199.50537	195.96716	292.90775	201.18370	194.84615	156.40372	
394	3.930	199.48022	195.94272	292.91522	201.19423	194.84402	156.42802	
395	3.940	199.48572	195.95891	292.89297	201.18370	194.84615	156.40372	
396	3.950	199.46901	195.94131	292.90649	201.18370	194.84615	156.40372	
397	3.960	199.44748	195.95119	292.86313	201.18370	194.84615	156.40372	
398	3.970	199.45248	195.94762	292.83728	201.18370	194.84615	156.40372	
399	3.980	199.43420	195.94191	292.85458	201.18370	194.84615	156.40372	
400	3.990	199.40453	195.94215	292.87662	201.18370	194.84615	156.40372	
401	4.000	199.40794	195.94743	292.88559	201.18370	194.84615	156.40372	
402	4.010	199.44147	195.93782	292.89139	201.18370	194.84615	156.40372	
403	4.020	199.45081	195.92276	292.90866	201.18370	194.84615	156.40372	
404	4.030	199.46764	195.92819	292.89761	201.18944	194.84500	156.41693	
405	4.040	199.46822	195.93878	292.90027	201.19035	194.84245	156.42369	
406	4.050	199.47594	195.93604	292.90103	201.18944	194.84500	156.41693	
407	4.060	199.50447	195.96638	292.87537	201.18370	194.84615	156.40372	
408	4.070	199.50800	195.96541	292.88504	201.18370	194.84615	156.40372	
409	4.080	199.46138	195.95845	292.86154	201.18370	194.84615	156.40372	
410	4.090	199.44675	195.95518	292.86551	201.18370	194.84615	156.40372	
411	4.100	199.47992	195.98518	292.85538	201.18370	194.84615	156.40372	
412	4.110	199.46187	195.95508	292.85889	201.18370	194.84615	156.40372	
413	4.120	199.44846	195.96384	292.85382	201.18370	194.84615	156.40372	
414	4.130	199.45714	195.97449	292.86856	201.18370	194.84615	156.40372	
415	4.140	199.43552	195.93880	292.87427	201.18370	194.84615	156.40372	
416	4.150	199.46062	195.92195	292.89581	201.18370	194.84615	156.40372	
417	4.160	199.45578	195.93575	292.90356	201.18370	194.84615	156.40372	
418	4.170	199.44405	195.92810	292.91406	201.18370	194.84615	156.40372	
419	4.180	199.46834	195.96742	292.87534	201.18370	194.84615	156.40372	
420	4.190	199.42613	195.94485	292.88486	201.18370	194.84615	156.40372	
421	4.200	199.44485	195.96857	292.87387	201.18370	194.84615	156.40372	
422	4.210	199.42500	195.93993	292.84946	201.18225	194.84952	156.39436	
423	4.220	199.42479	195.93549	292.84079	201.18152	194.85118	156.38969	
424	4.230	199.45201	195.95073	292.84222	201.18370	194.84615	156.40372	
425	4.240	199.49706	195.98146	292.85025	201.18370	194.84615	156.40372	
426	4.250	199.48637	195.97906	292.87262	201.18370	194.84615	156.40372	
427	4.260	199.50233	195.98354	292.87851	201.18370	194.84615	156.40372	
428	4.270	199.49553	195.97870	292.88702	201.18370	194.84615	156.40372	
429	4.280	199.49585	195.96364	292.89151	201.18370	194.84615	156.40372	
430	4.290	199.47386	195.94687	292.89532	201.18370	194.84615	156.40372	
431	4.300	199.46620	195.96622	292.87921	201.18370	194.84615	156.40372	
432	4.310	199.44591	195.93730	292.86441	201.18370	194.84615	156.40372	
433	4.320	199.45633	195.94795	292.87231	201.18370	194.84615	156.40372	
434	4.330	199.43460	195.94736	292.87683	201.18370	194.84615	156.40372	
435	4.340	199.43463	195.94836	292.85837	201.18370	194.84615	156.40372	
436	4.350	199.47528	195.96654	292.86285	201.18370	194.84615	156.40372	
437	4.360	199.44290	195.93193	292.88107	201.18370	194.84615	156.40372	
438	4.370	199.47520	195.95061	292.88373	201.18370	194.84615	156.40372	
439	4.380	199.49930	195.94131	292.90387	201.18370	194.84615	156.40372	
440	4.390	199.51476	195.96437	292.90155	201.18370	194.84615	156.40372	
441	4.400	199.50859	195.95157	292.89261	201.18370	194.84615	156.40372	
442	4.410	199.49916	195.97156	292.87390	201.18335	194.84698	156.40138	
443	4.420	199.49100	195.97307	292.87000	201.18370	194.84615	156.40372	
444	4.430	199.50410	195.98073	292.86551	201.18370	194.84615	156.40372	
445	4.440	199.50804	195.95116	292.88690	201.18370	194.84615	156.40372	
446	4.450	199.42465	195.89726	292.85968	201.18187	194.85033	156.39203	
447	4.460	199.49785	195.93718	292.87360	201.18370	194.84615	156.40372	
448	4.470	199.49727	195.94707	292.89972	201.18370	194.84615	156.40372	
449	4.480	199.47630	195.92674	292.89365	201.18370	194.84615	156.40372	
450	4.490	199.46700	195.94727	292.90936	201.18370	194.84615	156.40372	
451	4.500	199.44533	195.91615	292.89352	201.18370	194.84615	156.40372	
452	4.510	199.46872	195.94608	292.89862	201.18370	194.84615	156.40372	
453	4.520	199.45712	195.94489	292.88171	201.18370	194.84615	156.40372	
454	4.530	199.43739	195.94855	292.86365	201.18370	194.84615	156.40372	
455	4.540	199.45955	195.93478	292.89218	201.18370	194.84615	156.40372	
456	4.550	199.43054	195.93127	292.85468	201.18370	194.84615	156.40372	
457	4.560	199.42462	195.92493	292.87479	201.18370	194.84615	156.40372	
458	4.570	199.47705	195.94623	292.86850	201.18370	194.84615	156.40372	
459	4.580	199.46687	195.93787	292.88766	201.18370	194.84615	156.40372	
460	4.590	199.46246	195.93463	292.88474	201.18370	194.84615	156.40372	
461	4.600	199.45224	195.93929	292.89291	201.18370	194.84615	156.40372	
462	4.610	199.47598	195.92387	292.88828	201.18370	194.84615	156.40372	
463	4.620	199.47046	195.92982	292.89941	201.18370	194.84615	156.40372	
464	4.630	199.49130	195.95500	292.89761	201.18370	194.84615	156.40372	
465	4.640	199.45146	195.91499	292.89633	201.18370	194.84615	156.40372	
466	4.650	199.48271	195.95451	292.90604	201.18370	194.84615	156.40372	
467	4.660	199.45988	195.93997	292.88998	201.18370	194.84615	156.40372	
468	4.670	199.50873	195.95134	292.87045	201.18370	194.84615	156.40372	
469	4.680	199.49892	195.97241	292.87131	201.18300	194.84784	156.39903	
470	4.690	199.48610	195.98154	292.87216	201.18370	194.84615	156.40372	
471	4.700	199.52048	195.97273	292.87476	201.18370	194.84615	156.40372	
472	4.710	199.46793	195.92929	292.87912	201.18370	194.84615	156.40372	
473	4.720	199.47301	195.95679	292.89374	201.18370	194.84615	156.40372	
474	4.730	199.44963	195.90010	292.89972	201.18370	194.84615	156.40372	
475	4.740	199.47600	195.93263	292.88956	201.18370	194.84615	156.40372	
476	4.750	199.49443	195.94565	292.90497	201.18370	194.84615	156.40372	
477	4.760	199.45055	195.93707	292.89227	201.18370	194.84615	156.40372	
478	4.770	199.44785	195.92920	292.90329	201.18370	194.84615	156.40372	
479	4.780	199.40948	195.90939	292.88898	201.18370	194.84615	156.40372	
480	4.790	199.46843	195.93356	292.89468	201.18370	194.84615	156.40372	
481	4.800	199.43719	195.92036	292.89563	201.18370	194.84615	156.40372	
482	4.810	199.48672	195.93065	292.89468	201.18370	194.84615	156.40372	
483	4.820	199.47487	195.93944	292.89069	201.18370	194.84615	156.40372	
484	4.830	199.50757	195.96002	292.88077	201.18370	194.84615	156.40372	
485	4.840	199.53651	195.96886	292.88571	201.18370	194.84615	156.40372	
486	4.850	199.49094	195.96088	292.89352	201.18370	194.84615	156.40372	
487	4.860	199.48700	195.95341	292.88171	201.18370	194.84615	156.40372	
488	4.870	199.47737	195.94305	292.87860	201.18370	194.84615	156.40372	
489	4.880	199.47600	195.96053	292.87503	201.18370	194.84615	156.40372	
490	4.890	199.44971	195.92690	292.88861	201.18370	194.84615	156.40372	
491	4.900	199.43826	195.91577	292.88065	201.18370	194.84615	156.40372	
492	4.910	199.39037	195.89934	292.89310	201.18370	194.84615	156.40372	
493	4.920	199.45564	195.93250	292.89923	201.18370	194.84615	156.40372	
494	4.930	199.41269	195.91447	292.90155	201.18370	194.84615	156.40372	
495	4.940	199.41129	195.90938	292.90292	201.18370	194.84615	156.40372	
496	4.950	199.44246	195.89957	292.90195	201.18370	194.84615	156.40372	
497	4.960	199.39572	195.92247	292.89288	201.18370	194.84615	156.40372	
498	4.970	199.44580	195.92520	292.88007	201.18370	194.84615	156.40372	
499	4.980	199.46532	195.93503	292.89792	201.18370	194.84615	156.40372	
500	4.990	199.45624	195.94264	292.86737	201.18370	194.84615	156.40372	
501	5.000	199.48112	195.93799	292.90155	201.18370	194.84615	156.40372	
502	5.010	199.46144	195.92813	292.86926	201.18370	194.84615	156.40372	
503	5.020	199.51259	195.95567	292.87967	201.18370	194.84615	156.40372	
504	5.030	199.51357	195.94722	292.89148	201.18370	194.84615	156.40372	
505	5.040	199.51848	195.94792	292.88885	201.18370	194.84615	156.40372	
506	5.050	199.50847	195.95453	292.89056	201.18370	194.84615	156.40372	
507	5.060	199.41963	195.92982	292.89639	201.18370	194.84615	156.40372	
508	5.070	199.46317	195.93271	292.89795	201.18370	194.84615	156.40372	
509	5.080	199.44655	195.91876	292.91418	201.18370	194.84615	156.40372	
510	5.090	199.41249	195.89711	292.90494	201.18370	194.84615	156.40372	
511	5.100	199.41548	195.92926	292.89175	201.18370	194.84615	156.40372	
512	5.110	199.49232	195.95033	292.88379	201.18370	194.84615	156.40372	
513	5.120	199.39522	195.92421	292.86545	201.18370	194.84615	156.40372	
514	5.130	199.44348	195.93695	292.88699	201.18187	194.85033	156.39203	
515	5.140	199.46962	195.92828	292.87534	201.18370	194.84615	156.40372	
516	5.150	199.43039	195.95424	292.86905	201.18370	194.84615	156.40372	
517	5.160	199.45430	195.95442	292.86752	201.18370	194.84615	156.40372	
518	5.170	199.47034	195.96654	292.87088	201.18370	194.84615	156.40372	
519	5.180	199.48251	195.94406	292.88242	201.18370	194.84615	156.40372	
520	5.190	199.46869	195.95227	292.90088	201.18370	194.84615	156.40372	
521	5.200	199.46675	195.94421	292.87601	201.18370	194.84615	156.40372	
522	5.210	199.50148	195.96181	292.89664	201.18370	194.84615	156.40372	
523	5.220	199.45938	195.95210	292.88818	201.18370	194.84615	156.40372	
524	5.230	199.47450	195.93816	292.88757	201.18370	194.84615	156.40372	
525	5.240	199.50085	195.93999	292.89377	201.18370	194.84615	156.40372	
526	5.250	199.46626	195.93483	292.87704	201.18370	194.84615	156.40372	
527	5.260	199.46300	195.93405	292.89371	201.18370	194.84615	156.40372	
528	5.270	199.45242	195.92564	292.89966	201.18370	194.84615	156.40372	
529	5.280	199.43495	195.92487	292.90347	201.18370	194.84615	156.40372	
